<svg width="48" height="48" viewBox="0 0 48 48" fill="none" xmlns="http://www.w3.org/2000/svg">
<g id="people_alt" clip-path="url(#clip0_7_566)">
<g id="Group">
<g id="Group_2">
<g id="Group_3">
<path id="Vector" fill-rule="evenodd" clip-rule="evenodd" d="M33.3398 26.2598C36.0798 28.1198 37.9998 30.6398 37.9998 33.9998V39.9998H43.9998C45.0998 39.9998 45.9998 39.0998 45.9998 37.9998V33.9998C45.9998 29.6398 38.8598 27.0598 33.3398 26.2598Z" fill="#3ED5DD"/>
</g>
<g id="Group_4">
<path id="Vector_2" d="M18 24C22.4183 24 26 20.4183 26 16C26 11.5817 22.4183 8 18 8C13.5817 8 10 11.5817 10 16C10 20.4183 13.5817 24 18 24Z" fill="#3ED5DD"/>
</g>
<g id="Group_5">
<path id="Vector_3" fill-rule="evenodd" clip-rule="evenodd" d="M29.9998 24C34.4198 24 37.9998 20.42 37.9998 16C37.9998 11.58 34.4198 8 29.9998 8C29.0598 8 28.1798 8.2 27.3398 8.48C28.9998 10.54 29.9998 13.16 29.9998 16C29.9998 18.84 28.9998 21.46 27.3398 23.52C28.1798 23.8 29.0598 24 29.9998 24Z" fill="#3ED5DD"/>
</g>
<g id="Group_6">
<path id="Vector_4" fill-rule="evenodd" clip-rule="evenodd" d="M18 26C12.66 26 2 28.68 2 34V38C2 39.1 2.9 40 4 40H32C33.1 40 34 39.1 34 38V34C34 28.68 23.34 26 18 26Z" fill="#3ED5DD"/>
</g>
</g>
</g>
</g>
<defs>
<clipPath id="clip0_7_566">
<rect width="48" height="48" fill="white"/>
</clipPath>
</defs>
</svg>
