<svg width="152" height="58" viewBox="0 0 152 58" fill="none" xmlns="http://www.w3.org/2000/svg">
<g clip-path="url(#clip0_5_18856)">
<path d="M65.2238 9.86621L64.9963 10.4474L64.875 10.3915C64.987 10.2133 65.1036 10.0386 65.2238 9.86738V9.86621Z" fill="url(#paint0_linear_5_18856)"/>
<path d="M100.992 6.47952L98.4246 7.88654C96.7425 4.82557 93.5265 2.92353 90.034 2.92353C86.0633 2.92353 82.565 5.30894 81.1221 9.00004L80.5563 10.4467L79.1449 9.79673C78.0764 9.30521 76.9321 9.05478 75.7434 9.05478C71.2583 9.05478 67.6095 12.6981 67.6095 17.1766C67.6095 17.8685 67.6958 18.5545 67.8673 19.2172L68.3013 20.8898L66.5784 21.0401C62.9634 21.3569 60.1312 24.447 60.1312 28.0764C60.1312 30.1904 61.0655 32.0901 62.5446 33.3853H58.7361C57.7644 31.8467 57.2021 30.0261 57.2021 28.0764C57.2021 25.5628 58.1412 23.1599 59.8454 21.3115C61.174 19.8707 62.8771 18.8632 64.7481 18.3926C64.7038 17.9896 64.6816 17.5843 64.6816 17.1766C64.6816 11.0861 69.6439 6.13126 75.7434 6.13126C76.8621 6.13126 77.9527 6.29432 79.0003 6.61696C79.9288 4.87099 81.2609 3.37079 82.908 2.22701C85.0065 0.769901 87.4701 0 90.034 0C94.5962 0 98.7955 2.48325 100.993 6.47952H100.992Z" fill="url(#paint1_linear_5_18856)"/>
<path d="M109.059 24.7462C109.437 25.812 109.628 26.929 109.628 28.0763C109.628 33.5832 105.141 38.064 99.6257 38.064H94.835C96.1391 37.3698 97.3487 36.4788 98.4231 35.4049C98.5106 35.3175 98.5969 35.229 98.682 35.1393H99.6245C103.525 35.1393 106.698 31.97 106.698 28.0751C106.698 27.0804 106.495 26.1195 106.096 25.2191L105.781 24.5086L106.194 23.8505C107 22.5635 107.427 21.0761 107.427 19.5491C107.427 16.4742 105.719 13.6962 102.971 12.3032L104.297 9.69531C106.092 10.605 107.604 11.9864 108.674 13.6904C109.775 15.4445 110.356 17.47 110.356 19.5491C110.356 21.3708 109.909 23.1517 109.058 24.7451L109.059 24.7462Z" fill="url(#paint2_linear_5_18856)"/>
<path d="M80.7473 1.68074C79.9786 2.33999 79.2799 3.08193 78.6687 3.88678C77.3785 3.25781 75.9508 2.92469 74.474 2.92469C70.5033 2.92469 67.005 5.3101 65.562 9.0012L65.2238 9.86662L64.9963 10.4478L64.875 10.3919L63.5849 9.7979C62.5164 9.30637 61.372 9.05595 60.1834 9.05595C55.9292 9.05595 52.3656 12.3708 52.0705 16.6024L49.1484 16.3985C49.3432 13.6136 50.5774 11.0267 52.6234 9.11302C54.6799 7.19001 57.3652 6.13126 60.1834 6.13126C61.302 6.13126 62.3927 6.29432 63.4402 6.61696C64.3687 4.87099 65.7009 3.37079 67.3479 2.22701C69.4464 0.769901 71.9101 0 74.474 0C76.7125 0 78.8611 0.584706 80.7473 1.68074Z" fill="url(#paint3_linear_5_18856)"/>
<path d="M87.7535 38.0639H51.6462C46.1299 38.0639 41.6436 33.5831 41.6436 28.0762C41.6436 26.1439 42.1976 24.2686 43.2451 22.6531C44.2646 21.0818 45.6983 19.8297 47.392 19.0342L48.639 21.6805C46.1684 22.8406 44.5714 25.3507 44.5714 28.0762C44.5714 31.9711 47.7454 35.1404 51.6462 35.1404H87.7535C93.4903 35.1404 98.1586 30.4791 98.1586 24.7508C98.1586 19.0226 93.4903 14.3612 87.7535 14.3612C82.0168 14.3612 77.3485 19.0226 77.3485 24.7508H74.4194C74.4194 21.1948 75.8064 17.8508 78.3248 15.3361C80.8433 12.8214 84.1923 11.4365 87.7535 11.4365C91.3148 11.4365 94.6638 12.8214 97.1822 15.3361C99.7007 17.8508 101.088 21.1948 101.088 24.7508C101.088 28.3068 99.7007 31.6508 97.1822 34.1655C94.6638 36.6802 91.3148 38.0651 87.7535 38.0651V38.0639Z" fill="url(#paint4_linear_5_18856)"/>
<path d="M75.8834 31.319C73.4338 31.319 71.4414 29.3296 71.4414 26.8836C71.4414 24.4376 73.4338 22.4482 75.8834 22.4482C78.333 22.4482 80.3254 24.4376 80.3254 26.8836C80.3254 29.3296 78.333 31.319 75.8834 31.319ZM75.8834 25.3741C75.0493 25.3741 74.3704 26.052 74.3704 26.8848C74.3704 27.7176 75.0493 28.3955 75.8834 28.3955C76.7174 28.3955 77.3963 27.7176 77.3963 26.8848C77.3963 26.052 76.7174 25.3741 75.8834 25.3741Z" fill="url(#paint5_linear_5_18856)"/>
<path d="M50.0738 23.4674C47.6254 23.4674 45.6318 21.478 45.6318 19.0321C45.6318 16.5861 47.6242 14.5967 50.0738 14.5967C52.5234 14.5967 54.5158 16.5861 54.5158 19.0321C54.5158 21.478 52.5234 23.4674 50.0738 23.4674ZM50.0738 17.5225C49.2398 17.5225 48.5609 18.2004 48.5609 19.0332C48.5609 19.866 49.2398 20.5439 50.0738 20.5439C50.9078 20.5439 51.5867 19.866 51.5867 19.0332C51.5867 18.2004 50.9078 17.5225 50.0738 17.5225Z" fill="url(#paint6_linear_5_18856)"/>
<path d="M100.859 14.36C98.4105 14.36 96.417 12.3706 96.417 9.92463C96.417 7.47865 98.4094 5.48926 100.859 5.48926C103.309 5.48926 105.301 7.47865 105.301 9.92463C105.301 12.3706 103.309 14.36 100.859 14.36ZM100.859 8.41512C100.025 8.41512 99.346 9.093 99.346 9.9258C99.346 10.7586 100.025 11.4365 100.859 11.4365C101.693 11.4365 102.372 10.7586 102.372 9.9258C102.372 9.093 101.693 8.41512 100.859 8.41512Z" fill="url(#paint7_linear_5_18856)"/>
<path d="M8.24821 43.6016H6.05056L0 57.6974H2.84389L7.15872 47.4487L11.4549 57.6974H14.2988L8.24821 43.6016Z" fill="white"/>
<path d="M21.1754 43.6016V55.2002H28.2945V57.6974H18.4727V43.6016H21.1754Z" fill="white"/>
<path d="M35.4742 57.6974H32.7715V43.6016H39.1043C40.4959 43.6016 41.6449 44.0442 42.5735 44.9107C43.5218 45.7762 43.9849 46.864 43.9849 48.1523C43.9849 49.4405 43.5206 50.5481 42.5735 51.4147C41.6461 52.2801 40.4959 52.7239 39.1043 52.7239H35.4742V57.6974ZM35.4742 46.0988V50.2267H39.1043C40.2941 50.2267 41.1608 49.3403 41.1608 48.1523C41.1608 46.9642 40.2941 46.0988 39.1043 46.0988H35.4742Z" fill="white"/>
<path d="M48.7441 57.6974V43.6016H51.4469V57.6974H48.7441Z" fill="white"/>
<path d="M56.6096 57.6974V43.6016H59.009L66.45 53.0663V43.6016H69.0513V57.6974H66.6518L59.2097 48.2536V57.6974H56.6084H56.6096Z" fill="white"/>
<path d="M76.9166 55.1998V51.8174H83.5108V49.3213H74.2139V57.6982H84.7216V55.1998H76.9166Z" fill="white"/>
<path d="M92.1031 55.1998V51.8174H98.6973V49.3213H89.4004V57.6982H99.9081V55.1998H92.1031Z" fill="white"/>
<path d="M104.587 57.6974V43.6016H110.314C112.412 43.6016 114.166 44.2864 115.558 45.6352C116.969 46.984 117.675 48.6554 117.675 50.6495C117.675 52.6435 116.969 54.3138 115.558 55.6637C114.166 57.0125 112.412 57.6974 110.314 57.6974H104.587ZM107.29 46.0988V55.2002H110.314C111.604 55.2002 112.694 54.7576 113.562 53.891C114.429 53.0046 114.873 51.9179 114.873 50.6495C114.873 49.3811 114.43 48.2734 113.562 47.4068C112.695 46.5414 111.606 46.0976 110.314 46.0976H107.29V46.0988Z" fill="white"/>
<path d="M133.547 44.3877C134.736 45.0924 135.624 46.0591 136.228 47.267L133.606 48.2535C132.799 46.8034 131.327 45.8972 129.553 45.8972C128.222 45.8972 127.112 46.3608 126.225 47.267C125.337 48.1731 124.894 49.3006 124.894 50.6506C124.894 52.0005 125.317 53.1268 126.184 54.033C127.05 54.9392 128.099 55.3818 129.35 55.3818C130.298 55.3818 131.184 55.0999 131.971 54.556C132.757 54.012 133.302 53.2876 133.604 52.3814H129.147V49.9249H136.669C136.689 50.2266 136.71 50.4479 136.71 50.6296C136.71 52.704 136.004 54.4558 134.613 55.885C133.221 57.2943 131.467 57.999 129.389 57.999C127.312 57.999 125.557 57.2943 124.166 55.9048C122.774 54.4954 122.068 52.7436 122.068 50.6494C122.068 48.5552 122.774 46.8034 124.207 45.4138C125.638 44.0045 127.413 43.2998 129.55 43.2998C131.022 43.2998 132.353 43.662 133.543 44.3877H133.547Z" fill="white"/>
<path d="M144.195 55.1998V51.8174H150.789V49.3213H141.492V57.6982H152V55.1998H144.195Z" fill="white"/>
<path d="M84.6222 43.6016H74.2148V46.1H84.6222V43.6016Z" fill="url(#paint8_linear_5_18856)"/>
<path d="M99.8078 43.6016H89.4004V46.1H99.8078V43.6016Z" fill="url(#paint9_linear_5_18856)"/>
<path d="M151.897 43.6016H141.492V46.1H151.897V43.6016Z" fill="url(#paint10_linear_5_18856)"/>
</g>
<defs>
<linearGradient id="paint0_linear_5_18856" x1="35.7905" y1="-0.929871" x2="117.471" y2="30.05" gradientUnits="userSpaceOnUse">
<stop stop-color="#0093FE"/>
<stop offset="0.42" stop-color="#01B9E3"/>
<stop offset="1" stop-color="#04F6BB"/>
</linearGradient>
<linearGradient id="paint1_linear_5_18856" x1="34.9305" y1="1.34063" x2="116.61" y2="32.3196" gradientUnits="userSpaceOnUse">
<stop stop-color="#0093FE"/>
<stop offset="0.42" stop-color="#01B9E3"/>
<stop offset="1" stop-color="#04F6BB"/>
</linearGradient>
<linearGradient id="paint2_linear_5_18856" x1="35.5612" y1="-0.322722" x2="117.241" y2="30.6563" gradientUnits="userSpaceOnUse">
<stop stop-color="#0093FE"/>
<stop offset="0.42" stop-color="#01B9E3"/>
<stop offset="1" stop-color="#04F6BB"/>
</linearGradient>
<linearGradient id="paint3_linear_5_18856" x1="36.1713" y1="-1.93232" x2="117.851" y2="29.0466" gradientUnits="userSpaceOnUse">
<stop stop-color="#0093FE"/>
<stop offset="0.42" stop-color="#01B9E3"/>
<stop offset="1" stop-color="#04F6BB"/>
</linearGradient>
<linearGradient id="paint4_linear_5_18856" x1="31.5663" y1="10.2112" x2="113.246" y2="41.1902" gradientUnits="userSpaceOnUse">
<stop stop-color="#0093FE"/>
<stop offset="0.42" stop-color="#01B9E3"/>
<stop offset="1" stop-color="#04F6BB"/>
</linearGradient>
<linearGradient id="paint5_linear_5_18856" x1="31.5943" y1="10.1356" x2="113.274" y2="41.1146" gradientUnits="userSpaceOnUse">
<stop stop-color="#0093FE"/>
<stop offset="0.42" stop-color="#01B9E3"/>
<stop offset="1" stop-color="#04F6BB"/>
</linearGradient>
<linearGradient id="paint6_linear_5_18856" x1="30.9621" y1="11.8048" x2="112.64" y2="42.7838" gradientUnits="userSpaceOnUse">
<stop stop-color="#0093FE"/>
<stop offset="0.42" stop-color="#01B9E3"/>
<stop offset="1" stop-color="#04F6BB"/>
</linearGradient>
<linearGradient id="paint7_linear_5_18856" x1="40.3522" y1="-12.9558" x2="122.032" y2="18.0244" gradientUnits="userSpaceOnUse">
<stop stop-color="#0093FE"/>
<stop offset="0.42" stop-color="#01B9E3"/>
<stop offset="1" stop-color="#04F6BB"/>
</linearGradient>
<linearGradient id="paint8_linear_5_18856" x1="2.03273" y1="44.8502" x2="156.401" y2="44.8502" gradientUnits="userSpaceOnUse">
<stop stop-color="#0093FE"/>
<stop offset="0.42" stop-color="#01B9E3"/>
<stop offset="1" stop-color="#04F6BB"/>
</linearGradient>
<linearGradient id="paint9_linear_5_18856" x1="2.03297" y1="44.8502" x2="156.401" y2="44.8502" gradientUnits="userSpaceOnUse">
<stop stop-color="#0093FE"/>
<stop offset="0.42" stop-color="#01B9E3"/>
<stop offset="1" stop-color="#04F6BB"/>
</linearGradient>
<linearGradient id="paint10_linear_5_18856" x1="2.03296" y1="44.8502" x2="156.401" y2="44.8502" gradientUnits="userSpaceOnUse">
<stop stop-color="#0093FE"/>
<stop offset="0.42" stop-color="#01B9E3"/>
<stop offset="1" stop-color="#04F6BB"/>
</linearGradient>
<clipPath id="clip0_5_18856">
<rect width="152" height="58" fill="white"/>
</clipPath>
</defs>
</svg>
