<svg width="48" height="48" viewBox="0 0 48 48" fill="none" xmlns="http://www.w3.org/2000/svg">
<g id="verified_user" clip-path="url(#clip0_7_538)">
<path id="Vector" d="M22.38 2.72L8.38 8.94C6.94 9.58 6 11.02 6 12.6V22C6 33.1 13.68 43.48 24 46C34.32 43.48 42 33.1 42 22V12.6C42 11.02 41.06 9.58 39.62 8.94L25.62 2.72C24.6 2.26 23.4 2.26 22.38 2.72ZM18.58 32.58L13.4 27.4C12.62 26.62 12.62 25.36 13.4 24.58C14.18 23.8 15.44 23.8 16.22 24.58L20 28.34L31.76 16.58C32.54 15.8 33.8 15.8 34.58 16.58C35.36 17.36 35.36 18.62 34.58 19.4L21.4 32.58C20.64 33.36 19.36 33.36 18.58 32.58Z" fill="url(#paint0_linear_7_538)"/>
</g>
<defs>
<linearGradient id="paint0_linear_7_538" x1="24" y1="2.375" x2="24" y2="46" gradientUnits="userSpaceOnUse">
<stop stop-color="#3ED5DD"/>
<stop offset="0.510417" stop-color="#3ED5DD"/>
</linearGradient>
<clipPath id="clip0_7_538">
<rect width="48" height="48" fill="white"/>
</clipPath>
</defs>
</svg>
