<svg width="48" height="48" viewBox="0 0 48 48" fill="none" xmlns="http://www.w3.org/2000/svg">
<g id="published_with_changes" clip-path="url(#clip0_7_545)">
<path id="Vector" d="M33.9 20.4598L22.58 31.7798C21.8 32.5598 20.54 32.5598 19.76 31.7798L14.1 26.1198C13.32 25.3398 13.32 24.0798 14.1 23.2998C14.88 22.5198 16.14 22.5198 16.92 23.2998L21.16 27.5398L31.06 17.6398C31.84 16.8598 33.1 16.8598 33.88 17.6398C34.68 18.4198 34.68 19.6798 33.9 20.4598ZM8 23.9998C8 19.3398 10.04 15.1598 13.24 12.2398L16.3 15.2998C16.92 15.9198 18 15.4798 18 14.5798V5.99978C18 5.43978 17.56 4.99978 17 4.99978H8.42C7.52 4.99978 7.08 6.07978 7.72 6.69978L10.4 9.39978C6.48 13.0398 4 18.2198 4 23.9998C4 33.4998 10.64 41.4598 19.52 43.4998C20.78 43.7798 22 42.8398 22 41.5398C22 40.5998 21.34 39.7998 20.42 39.5798C13.32 37.9598 8 31.5998 8 23.9998ZM44 23.9998C44 14.4998 37.36 6.53978 28.48 4.49978C27.22 4.21978 26 5.15978 26 6.45978C26 7.39978 26.66 8.19978 27.58 8.41978C34.68 10.0398 40 16.3998 40 23.9998C40 28.6598 37.96 32.8398 34.76 35.7598L31.7 32.6998C31.08 32.0798 30 32.5198 30 33.4198V41.9998C30 42.5598 30.44 42.9998 31 42.9998H39.58C40.48 42.9998 40.92 41.9198 40.28 41.2998L37.6 38.5998C41.52 34.9598 44 29.7798 44 23.9998Z" fill="#3ED5DD"/>
</g>
<defs>
<clipPath id="clip0_7_545">
<rect width="48" height="48" fill="white"/>
</clipPath>
</defs>
</svg>
