<svg width="55" height="47" viewBox="0 0 55 47" fill="none" xmlns="http://www.w3.org/2000/svg">
<g id="check">
<path id="Vector" d="M49.5 31.0021C49.5 33.3061 48.6406 35.2732 46.9219 36.9035C45.2031 38.5337 43.1292 39.3488 40.7 39.3488H15.7667C12.9403 39.3488 10.5226 38.396 8.51353 36.4905C6.50451 34.5849 5.5 32.2917 5.5 29.611C5.5 27.6982 6.04236 25.9484 7.12709 24.3616C8.2118 22.7749 9.64027 21.5903 11.4125 20.8078C11.3819 20.402 11.3667 20.0905 11.3667 19.8731C11.3667 16.801 12.5125 14.1782 14.8042 12.0046C17.0958 9.83095 19.8611 8.74414 23.1 8.74414C25.5139 8.74414 27.7024 9.38173 29.6656 10.6569C31.6288 11.9321 33.0611 13.5986 33.9625 15.6563C35.0319 14.7578 36.3 14.3086 37.7667 14.3086C39.3861 14.3086 40.7688 14.852 41.9146 15.9388C43.0604 17.0256 43.6333 18.3371 43.6333 19.8731C43.6333 20.9599 43.3201 21.9598 42.6938 22.8727C44.6646 23.3074 46.2917 24.2819 47.575 25.7962C48.8583 27.3105 49.5 29.0458 49.5 31.0021Z" fill="url(#paint0_linear_25_1639)"/>
</g>
<defs>
<linearGradient id="paint0_linear_25_1639" x1="5.5" y1="24.0465" x2="49.5" y2="24.0465" gradientUnits="userSpaceOnUse">
<stop stop-color="#3ED5DD"/>
<stop offset="1" stop-color="#3ED5DD"/>
</linearGradient>
</defs>
</svg>
